<svg height="64pt" preserveAspectRatio="xMidYMid meet" viewBox="0 0 64 64" width="64pt" xmlns="http://www.w3.org/2000/svg"><g transform="matrix(.1 0 0 -.1 0 64)"><path d="m348 632c-12-2-14-20-13-96 2-77 6-101 24-129 55-89 191-92 253-5 19 28 24 48 26 131 3 76 1 97-10 98-54 2-268 3-280 1z"/><path d="m209 616c-135-48-211-165-205-314 6-148 98-258 242-290 22-5 45-7 52-5 9 4 12 75 12 314v309h-32c-18-1-49-7-69-14z"/><path d="m370 311c-34-4-39-16-28-65 29-132 131-225 263-238l30-3 3 155 2 155h-122c-68 0-134-2-148-4z"/></g></svg>