<svg clip-rule="evenodd" fill-rule="evenodd" stroke-linejoin="round" stroke-miterlimit="2" viewBox="0 0 1250 1250" xmlns="http://www.w3.org/2000/svg"><path d="m-.182 2.033h1250.36v1246.51h-1250.36z" transform="matrix(.9997091331 0 0 1.00280080224 -.00004147 -2.038718166)"/><g fill="#fff" fill-rule="nonzero"><path d="m.67.037c.109 0 .202-.061.243-.167l-.062-.032c-.037.086-.101.124-.174.124-.079 0-.167-.045-.243-.119.035-.065.052-.136.052-.205 0-.147-.078-.29-.235-.37l-.042.069c.128.065.204.179.204.31 0 .048-.01.097-.031.147-.047-.045-.1-.069-.148-.069-.072 0-.136.056-.136.14 0 .087.067.135.136.135.057 0 .112-.031.159-.092.09.089.189.129.277.129zm-.425-.113c-.037 0-.071-.025-.071-.064 0-.04.03-.063.066-.063.035 0 .074.023.108.06-.031.046-.07.067-.103.067zm.492-.138c.041 0 .084-.013.118-.038l-.028-.059c-.026.016-.055.024-.08.024-.051 0-.093-.03-.093-.088v-.191h.119v-.073h-.119v-.138l-.076.039v.099h-.08v.073h.08v.193c0 .108.077.159.159.159zm.063-.176c.032 0 .057-.025.057-.057 0-.031-.025-.056-.057-.056-.033 0-.058.025-.058.056 0 .032.025.057.058.057z" transform="matrix(404.1673233336 0 0 404.1673233336 96.92837773934 587.3395866696)"/><path d="m.098-0h.45v-.085h-.348v-.615h-.102z" transform="matrix(316.6672533336 0 0 316.6672533336 518.3212481867 575.34007707)"/><path d="m.256.01c.075 0 .126-.035.157-.089v.079h.092v-.521h-.096v.269c0 .112-.058.172-.13.172-.064 0-.105-.045-.105-.146v-.295h-.096v.327c0 .147.08.204.178.204z" transform="matrix(316.6672533336 0 0 316.6672533336 694.7043892931 575.34007707)"/><path d="m.048-0h.437v-.08h-.317l.306-.362v-.079h-.422v.079h.299l-.303.362z" transform="matrix(316.6672533336 0 0 316.6672533336 879.3215369867 575.34007707)"/><path d="m.088-0h.096v-.521h-.096zm-.009-.625h.114v-.121h-.114z" transform="matrix(316.6672533336 0 0 316.6672533336 1038.9216646667 575.34007707)"/><path d="m.225-0h.102v-.615h.225v-.085h-.552v.085h.225z" transform="matrix(316.6672533336 0 0 316.6672533336 133.5709403867 875.5873172676)"/><path d="m.289.202c.136 0 .24-.08.24-.235v-.488h-.096v.223c0 .111-.07.172-.143.172-.065 0-.116-.046-.116-.146v-.249h-.096v.28c0 .142.089.205.19.205.073 0 .132-.032.165-.095v.103c0 .096-.05.148-.139.148-.075 0-.125-.039-.132-.1h-.105c.008.103.102.182.232.182z" transform="matrix(316.6672533336 0 0 316.6672533336 293.1710680667 875.5873172676)"/><path d="m.088.201h.096v-.285c.03.054.096.085.169.085.121 0 .244-.085.244-.271 0-.178-.116-.261-.236-.261-.072 0-.142.031-.177.087v-.077h-.096zm.25-.281c-.08 0-.157-.064-.157-.186 0-.121.077-.185.157-.185.081 0 .158.064.158.185 0 .122-.076.186-.158.186z" transform="matrix(316.6672533336 0 0 316.6672533336 485.3882218403 875.5873172676)"/><path d="m.288.01c.129 0 .204-.072.23-.165h-.101c-.018.053-.057.085-.125.085-.097 0-.143-.072-.151-.163h.384v-.028c0-.187-.096-.27-.229-.27-.169 0-.257.132-.257.276 0 .138.079.265.249.265zm-.144-.321c.014-.08.061-.14.146-.14.079 0 .128.049.133.14z" transform="matrix(316.6672533336 0 0 316.6672533336 686.7883829603 875.5873172676)"/></g></svg>